<svg xmlns="http://www.w3.org/2000/svg" xmlns:xlink="http://www.w3.org/1999/xlink" xmlns:v="http://vecta.io" width="165"
    height="213" viewBox="0 0 165 213">
    <style>
        <![CDATA[
        svg {
            stroke: #000;
            stroke-linecap: round;
            stroke-linejoin: round;
            fill: #fff;
            fill-rule: evenodd;
            font-family: Roboto;
            font-size: 14px;
            text-anchor: middle;
        }

        svg text {
            paint-order: stroke;
            white-space: pre;
        }

        svg .Text\.cls {
            stroke: none;
        }
        ]]>
    </style>
    <g>
        <g>
            <g transform="translate(0 93.4555)">
                <g>
                    <g transform="translate(0 1.1865)">
                        <path
                            d="M 20.1709 0 Q 22.8604 0 22.8604 8.0684 L 25.5498 8.0684 L 29.584 5.3789 L 30.9287 6.7236 L 24.2051 82.0283 Q 32.748 77.9941 69.9258 72.6152 L 71.2705 72.6152 L 71.2705 73.96 Q 24.2051 81.6328 24.2051 86.0625 L 38.9971 82.0283 L 38.9971 83.373 L 64.5469 77.9941 L 64.5469 79.3389 L 65.8916 77.9941 L 67.2363 77.9941 L 68.5811 79.3389 L 75.3047 77.9941 L 80.6836 77.9941 L 90.0967 79.3389 L 90.0967 80.6836 Q 90.0967 84.7178 69.9258 87.4072 L 69.9258 88.752 L 71.2705 87.4072 L 72.6152 87.4072 L 82.0283 88.752 L 83.373 87.4072 L 83.373 91.4414 L 38.9971 102.1992 L 10.7578 112.957 L 6.7236 112.957 L 1.3447 106.2334 L 0 106.2334 L 0 104.8887 Q 0 101.4873 5.3789 100.8545 L 5.3789 96.8203 L 1.3447 91.4414 L 6.7236 30.9287 L 8.0684 30.9287 L 8.0684 36.3076 L 6.7236 45.7207 L 9.4131 45.7207 L 6.7236 63.2021 L 8.0684 64.5469 L 6.7236 69.9258 L 6.7236 76.6494 L 8.0684 76.6494 L 13.4473 5.3789 Q 16.1367 5.3789 16.1367 1.3447 L 17.4814 0 Z"
                            fill-rule="nonzero" stroke="#04d9ff" stroke-linejoin="miter" stroke-linecap="butt"
                            fill="#04d9ff" stroke-width="0" />
                    </g>
                    <g transform="translate(84.8755 0)">
                        <path
                            d="M 41.9243 0 Q 45.4839 2.6895 64.5474 2.6895 L 64.4681 4.0342 L 55.0551 4.0342 L 54.976 5.3789 Q 71.8246 5.3789 76.017 13.4473 L 75.8588 16.1367 L 69.1353 16.1367 L 69.056 17.4814 L 78.39 18.8262 L 78.3109 20.1709 L 70.2426 20.1709 L 70.1633 21.5156 Q 74.1975 21.5156 74.0393 24.2051 Q 50.0715 24.2051 31.2454 41.6865 L 31.1661 43.0313 Q 57.1906 49.9922 72.3781 73.96 L 72.299 75.3047 Q 67.3947 92.707 44.8507 107.5781 L 36.6241 108.9229 L 36.5449 110.2676 L 39.2344 110.2676 Q 39.0762 113.9063 14.5547 118.3359 L 14.7129 115.6465 L 21.4365 115.6465 L 21.5947 114.3018 Q 12.9727 114.3018 6.0117 104.8887 Q 0 101.8037 0 93.1025 Q 0 92.3115 0.0789 91.4414 L 4.2712 88.752 L 8.1472 91.4414 L 10.8367 91.4414 Q 48.8054 85.5088 49.9919 67.2363 Q 34.0925 59.168 28.9509 59.168 L 28.8717 60.5127 L 15.6617 55.1338 L 16.9274 56.4785 L 16.8481 59.168 Q 0.0786 46.8281 0.4741 40.3418 L 10.9946 21.5156 L 18.0347 16.1367 L 17.8765 18.8262 Z M 23.5728 36.3076 L 23.4935 37.6523 L 47.224 22.8604 L 58.14 20.1709 L 58.2982 17.4814 L 55.6088 17.4814 Q 34.3304 25.3916 23.5726 36.3076 Z M 31.0083 91.4414 L 32.353 91.4414 L 35.2007 88.752 L 33.856 88.752 Z M 55.2134 91.4414 L 49.439 98.165 L 50.7837 98.165 L 56.5581 91.4414 Z M 38.3647 102.1992 L 38.3647 103.5439 L 39.7095 103.5439 L 45.3257 99.5098 Z M 23.0981 111.6123 L 23.0192 112.957 L 28.3981 112.957 L 35.2008 111.6123 L 35.2008 110.2676 L 33.8561 110.2676 Z"
                            fill-rule="nonzero" stroke="#04d9ff" stroke-linejoin="miter" stroke-linecap="butt"
                            fill="#04d9ff" stroke-width="0" />
                    </g>
                </g>
            </g>
            <g transform="translate(40.7588 0)">
                <path
                    d="M 58.6296 69.6556 C 64.2385 66.0723 64.5501 66.383 61.5899 68.5648 C 58.6296 70.7466 63.9269 67.6301 61.123 69.6556 L 59.8768 70.9018 C 59.8768 70.9018 57.8513 73.2389 56.4489 73.3942 C 55.0465 73.5495 58.0057 73.2389 55.9811 74.1744 C 53.9564 75.1099 39.1376 81.7941 15.1618 64.3584 C 21.8623 75.576 33.7021 80.5617 43.6735 80.717 C 43.6735 80.717 40.5563 80.717 42.2711 81.0286 C 43.9858 81.3402 41.4918 83.6763 26.8463 78.2246 C 27.4711 79.6261 27.6265 80.0931 29.3404 81.0286 C 29.3404 81.0286 10.1761 74.4844 3.4782 55.1663 L 3.7889 60.152 C 3.7889 60.152 -5.8718 43.0132 5.6591 21.8251 C 17.1899 0.637 42.5834 -0.1414 46.0106 0.0139 C 49.4377 0.1692 68.6002 4.5319 72.9628 9.0507 C 77.3254 13.5695 70.7828 10.6084 70.7828 10.6084 C 70.7828 10.6084 68.6002 11.8547 72.1852 13.7232 C 75.7701 15.5917 79.6625 21.8251 76.7014 19.4881 C 73.7403 17.1511 78.1038 22.2929 78.5716 22.6044 C 79.0394 22.9159 72.0281 19.4881 73.8983 21.5136 C 75.7684 23.5391 83.8688 32.4197 81.2211 35.0691 C 78.5734 37.7186 77.6361 30.3941 77.1691 29.9272 C 76.7023 29.4603 77.9501 40.677 77.1691 42.5455 C 76.3882 44.414 76.5461 38.3408 74.9892 36.4706 C 73.4323 34.6004 72.9628 34.7568 71.872 34.7568 C 70.7812 34.7568 67.8226 31.7974 67.5102 30.0825 C 67.1978 28.3677 66.264 27.9008 64.8607 26.4993 C 63.4573 25.0978 61.2783 23.6953 58.6296 23.8506 C 55.9811 24.0059 57.3835 20.7344 52.8647 20.7344 C 48.3459 20.7344 45.6973 19.9567 41.8033 21.6698 C 37.9092 23.3829 30.742 25.4084 30.118 25.5638 C 29.494 25.7192 36.6614 21.6698 37.7532 21.0458 C 38.8449 20.4219 20.7706 25.0969 17.8104 32.2634 C 14.8502 39.4299 12.2025 51.7384 22.3292 62.9551 C 32.4559 74.1719 50.5277 75.2636 58.6296 69.6556"
                    stroke="none" fill="#04d9ff" />
            </g>
        </g>
    </g>
</svg>