<svg xmlns="http://www.w3.org/2000/svg" width="206" height="234" stroke="none" stroke-linecap="round"
  stroke-linejoin="round" fill="#04d9ff" fill-rule="evenodd">
  <path
    d="M120.6296 69.6556c5.6088-3.5833 5.9204-3.2726 2.9602-1.0908s2.337-.9347-.4669 1.0908l-1.2462 1.2462s-2.0255 2.3371-3.4279 2.4924 1.5569-.1553-.4678.7802-16.8435 7.6197-40.8193-9.816C83.8622 75.576 95.702 80.5617 105.6734 80.717c0 0-3.1172 0-1.4024.3116s-.7793 2.6477-15.4248-2.804c.6248 1.4015.7802 1.8684 2.4941 2.804 0 0-19.1643-6.5443-25.8622-25.8623l.3107 4.9857s-9.6607-17.1388 1.8702-38.3269S104.5834-.1414 108.0105.0139s22.5896 4.518 26.9522 9.0368-2.18 1.5577-2.18 1.5577-2.1826 1.2462 1.4024 3.1147 7.4773 8.102 4.5162 5.765 1.4024 2.8048 1.8702 3.1163-6.5434-3.1163-4.6733-1.0908 9.9705 10.906 7.3228 13.5555-3.585-4.675-4.0519-5.1419.781 10.7498 0 12.6183-.6231-4.2047-2.18-6.0749-2.0264-1.7139-3.1172-1.7139-4.0494-2.9593-4.3618-4.6742-1.2462-2.1817-2.6495-3.5832-3.5824-2.804-6.231-2.6487-1.2462-3.1163-5.765-3.1163-7.1674-.7776-11.0614.9355-11.0613 3.7386-11.6853 3.894 6.5435-3.894 7.6352-4.518-16.9826 4.0511-19.9428 11.2176-5.6079 19.475 4.5188 30.6917 28.1985 12.3085 36.3005 6.7005" />
  <path
    d="M24.5602 207.4077h62.5657v22.5882H0v-125.49h24.5602v102.9018zm129.6132 25.098c-30.6554 0-50.9131-18.465-57.9047-38.0055l23.4846-7.1709c5.0196 13.0868 17.7479 23.4845 35.8543 23.4845 14.7002 0 23.8431-7.5293 23.8431-15.7758 0-6.6331-4.4818-11.1149-16.493-15.0588L130.8681 169.94c-16.4929-5.1989-28.5041-15.7759-28.3249-31.9104-.1792-19.5405 18.8235-36.0335 44.9972-36.0335 27.07 0 47.1484 14.8795 53.9607 32.2689l-22.7675 6.633c-5.1989-10.2185-16.8515-17.2101-31.0139-17.2101-12.3698 0-20.2577 6.2745-20.2577 13.6247 0 5.5574 3.7647 9.3221 12.0112 11.8319l31.1932 10.0392c19.182 5.9159 33.703 13.9832 33.703 34.4201 0 21.5126-20.0784 38.9019-50.196 38.9019z"
    fill-rule="nonzero" />
</svg>