<svg width="35" height="24" viewBox="0 0 35 24" fill="none" xmlns="http://www.w3.org/2000/svg">
    <path
        d="M1.55125 23C1.31658 23 1.13525 22.936 1.00725 22.808C0.87925 22.6587 0.81525 22.4773 0.81525 22.264V1.336C0.81525 1.12267 0.87925 0.951999 1.00725 0.823999C1.13525 0.674665 1.31658 0.599998 1.55125 0.599998H3.24725C3.46058 0.599998 3.63125 0.674665 3.75925 0.823999C3.88725 0.951999 3.95125 1.12267 3.95125 1.336V20.216H14.6073C14.8419 20.216 15.0233 20.2907 15.1513 20.44C15.2793 20.568 15.3433 20.7493 15.3433 20.984V22.264C15.3433 22.4773 15.2793 22.6587 15.1513 22.808C15.0233 22.936 14.8419 23 14.6073 23H1.55125ZM26.0465 23.32C24.1905 23.32 22.6332 23.0427 21.3745 22.488C20.1158 21.912 19.1452 21.176 18.4625 20.28C17.8012 19.3627 17.4492 18.392 17.4065 17.368C17.4065 17.1973 17.4705 17.048 17.5985 16.92C17.7478 16.7707 17.9185 16.696 18.1105 16.696H19.7425C19.9985 16.696 20.1905 16.76 20.3185 16.888C20.4465 17.016 20.5318 17.1653 20.5745 17.336C20.6812 17.848 20.9372 18.36 21.3425 18.872C21.7692 19.3627 22.3558 19.7787 23.1025 20.12C23.8705 20.44 24.8518 20.6 26.0465 20.6C27.8812 20.6 29.2252 20.28 30.0785 19.64C30.9532 18.9787 31.3905 18.104 31.3905 17.016C31.3905 16.2693 31.1558 15.672 30.6865 15.224C30.2385 14.7547 29.5452 14.3387 28.6065 13.976C27.6678 13.6133 26.4518 13.2187 24.9585 12.792C23.4012 12.344 22.1105 11.8533 21.0865 11.32C20.0625 10.7867 19.2945 10.1253 18.7825 9.336C18.2918 8.54667 18.0465 7.544 18.0465 6.328C18.0465 5.176 18.3558 4.152 18.9745 3.256C19.5932 2.33867 20.4785 1.61333 21.6305 1.08C22.8038 0.546665 24.2225 0.279999 25.8865 0.279999C27.2092 0.279999 28.3612 0.461332 29.3425 0.823999C30.3452 1.16533 31.1772 1.63467 31.8385 2.232C32.4998 2.808 33.0012 3.43733 33.3425 4.12C33.6838 4.78133 33.8652 5.432 33.8865 6.072C33.8865 6.22133 33.8332 6.37067 33.7265 6.52C33.6198 6.648 33.4492 6.712 33.2145 6.712H31.5185C31.3692 6.712 31.2092 6.66933 31.0385 6.584C30.8892 6.49867 30.7718 6.33867 30.6865 6.104C30.5585 5.22933 30.0678 4.49333 29.2145 3.896C28.3612 3.29867 27.2518 3 25.8865 3C24.4998 3 23.3692 3.26667 22.4945 3.8C21.6412 4.33333 21.2145 5.16533 21.2145 6.296C21.2145 7.02133 21.4172 7.62933 21.8225 8.12C22.2278 8.58933 22.8678 9.00533 23.7425 9.368C24.6172 9.73067 25.7585 10.1147 27.1665 10.52C28.8732 10.9893 30.2705 11.4907 31.3585 12.024C32.4465 12.536 33.2465 13.1867 33.7585 13.976C34.2918 14.744 34.5585 15.736 34.5585 16.952C34.5585 18.296 34.2065 19.448 33.5025 20.408C32.7985 21.3467 31.8065 22.072 30.5265 22.584C29.2678 23.0747 27.7745 23.32 26.0465 23.32Z"
        fill="#04D9FF" />
</svg>