<svg width="36" height="24" viewBox="0 0 36 24" fill="none" xmlns="http://www.w3.org/2000/svg">
<path d="M0.4455 23V0.599998H4.6055V19.48H16.3175V23H0.4455ZM26.3895 23.32C24.6402 23.32 22.9655 23.0747 21.3655 22.584C19.7655 22.072 18.4962 21.4213 17.5575 20.632L18.9975 17.4C19.8935 18.104 21.0028 18.6907 22.3255 19.16C23.6482 19.6293 25.0028 19.864 26.3895 19.864C27.5628 19.864 28.5122 19.736 29.2375 19.48C29.9628 19.224 30.4962 18.8827 30.8375 18.456C31.1788 18.008 31.3495 17.5067 31.3495 16.952C31.3495 16.2693 31.1042 15.7253 30.6135 15.32C30.1228 14.8933 29.4828 14.5627 28.6935 14.328C27.9255 14.072 27.0615 13.8373 26.1015 13.624C25.1628 13.4107 24.2135 13.1653 23.2535 12.888C22.3148 12.5893 21.4508 12.216 20.6615 11.768C19.8935 11.2987 19.2642 10.68 18.7735 9.912C18.2828 9.144 18.0375 8.16267 18.0375 6.968C18.0375 5.752 18.3575 4.64267 18.9975 3.64C19.6588 2.616 20.6508 1.80533 21.9735 1.208C23.3175 0.589332 25.0135 0.279999 27.0615 0.279999C28.4055 0.279999 29.7388 0.450666 31.0615 0.792C32.3842 1.13333 33.5362 1.624 34.5175 2.264L33.2055 5.496C32.2028 4.89867 31.1682 4.46133 30.1015 4.184C29.0348 3.88533 28.0108 3.736 27.0295 3.736C25.8775 3.736 24.9388 3.87466 24.2135 4.152C23.5095 4.42933 22.9868 4.792 22.6455 5.24C22.3255 5.688 22.1655 6.2 22.1655 6.776C22.1655 7.45867 22.4002 8.01333 22.8695 8.44C23.3602 8.84533 23.9895 9.16533 24.7575 9.4C25.5468 9.63467 26.4215 9.86933 27.3815 10.104C28.3415 10.3173 29.2908 10.5627 30.2295 10.84C31.1895 11.1173 32.0535 11.48 32.8215 11.928C33.6108 12.376 34.2402 12.984 34.7095 13.752C35.2002 14.52 35.4455 15.4907 35.4455 16.664C35.4455 17.8587 35.1148 18.968 34.4535 19.992C33.8135 20.9947 32.8215 21.8053 31.4775 22.424C30.1335 23.0213 28.4375 23.32 26.3895 23.32Z" fill="#04D9FF"/>
</svg>
